<?xml version="1.0" standalone="no"?>
<!DOCTYPE svg PUBLIC "-//W3C//DTD SVG 20010904//EN"
 "http://www.w3.org/TR/2001/REC-SVG-20010904/DTD/svg10.dtd">
<svg version="1.0" xmlns="http://www.w3.org/2000/svg"
 width="700.000000pt" height="700.000000pt" viewBox="0 0 700.000000 700.000000"
 preserveAspectRatio="xMidYMid meet">
<metadata>
Created by potrace 1.14, written by Peter Selinger 2001-2017
</metadata>
<g transform="translate(0.000000,700.000000) scale(0.100000,-0.100000)"
fill="#000000" stroke="none">
<path d="M335 5560 l-130 -5 0 -65 c-1 -91 1 -97 43 -104 141 -23 281 -165
317 -321 12 -55 14 -3021 1 -3085 -24 -126 -57 -199 -118 -264 -43 -45 -147
-102 -200 -108 -15 -2 -31 -7 -35 -11 -4 -4 -7 -40 -7 -80 l-1 -72 430 -5
c237 -3 508 -4 603 -2 l172 3 0 79 c0 57 -4 80 -12 81 -76 5 -176 50 -235 106
-46 43 -91 132 -113 223 -12 45 -14 313 -15 1483 0 785 2 1427 5 1427 3 0 17
-39 32 -88 14 -48 49 -163 78 -257 53 -176 76 -252 180 -590 34 -110 63 -207
65 -215 2 -8 10 -35 18 -60 8 -25 27 -85 42 -135 15 -49 31 -101 35 -115 5
-14 50 -160 100 -325 50 -165 106 -349 125 -410 19 -60 59 -193 90 -295 31
-102 64 -212 75 -245 33 -106 168 -548 185 -607 l16 -58 318 0 317 0 38 123
c22 67 49 154 61 192 95 296 269 846 302 950 13 44 27 87 30 95 7 18 7 15 21
67 7 23 25 81 41 130 16 48 54 169 85 268 32 99 61 191 66 205 5 14 34 106 65
205 31 99 64 200 72 225 8 25 28 86 43 135 100 320 282 891 288 901 10 17 8
-2909 -2 -2966 -33 -200 -114 -303 -281 -360 l-50 -17 0 -76 0 -77 227 0 c295
0 1177 0 1268 0 l69 0 -1 80 -1 80 -31 1 c-116 3 -219 74 -271 186 -28 62 -53
142 -60 194 -5 34 -7 1000 -2 1005 1 1 184 4 407 7 370 4 445 7 535 22 17 2
46 7 65 10 160 26 270 60 395 122 126 64 292 184 368 267 80 87 95 106 135
164 78 118 149 292 167 415 4 23 8 44 10 47 15 24 23 341 11 415 -2 17 -8 50
-11 75 -11 68 -12 75 -35 158 -44 162 -183 393 -301 497 -197 174 -461 297
-729 340 -25 4 -54 9 -65 11 -19 4 -57 9 -155 19 -35 3 -1268 7 -1962 5 -101
0 -103 -1 -113 -50 -1 -6 -44 -144 -80 -260 -13 -41 -58 -190 -100 -330 -42
-140 -87 -289 -100 -330 -38 -122 -114 -371 -370 -1215 -20 -66 -61 -201 -92
-300 -30 -99 -60 -200 -67 -225 -7 -24 -15 -40 -18 -35 -3 6 -20 55 -36 110
-17 55 -74 242 -127 415 -53 173 -112 367 -131 430 -20 63 -46 149 -59 190
-24 76 -44 142 -155 505 -33 110 -74 243 -90 295 -16 52 -46 149 -66 215 -20
66 -42 138 -49 160 -7 22 -38 127 -70 233 l-58 192 -146 0 c-80 0 -369 1 -641
3 -272 1 -553 0 -625 -3z m4950 -344 c117 -22 117 -22 194 -54 214 -90 337
-257 395 -537 34 -165 40 -492 11 -625 -3 -14 -8 -38 -11 -55 -18 -106 -75
-245 -134 -330 -115 -164 -306 -266 -550 -291 -52 -5 -417 -9 -481 -5 -14 1
-16 91 -16 954 0 523 4 955 8 958 20 12 505 0 584 -15z"/>
</g>
</svg>
