<svg xmlns="http://www.w3.org/2000/svg" width="100" height="100" viewBox="0 0 100 100" fill="none">
<defs>
  <style>

    path {
      fill: rgb(150, 150, 210);
    }

  </style>
  </defs>
  <path d="M91.34,25.3838a18.3776,18.3776,0,0,0-4.9417-2.9551A28.6148,28.6148,0,0,0,75.56,20.5607H49L37,60,24.9344,20.5607H2.9355v2.3649A5.6516,5.6516,0,0,1,6.8612,25.13a9.9986,9.9986,0,0,1,1.02,1.7985A4.4119,4.4119,0,0,1,8.22,28.6415V69.7208q0,6.6979-5.2847,7.4317v2.2868H20.1486V77.1559a5.8213,5.8213,0,0,1-4.11-2.1236,9.0761,9.0761,0,0,1-1.2484-5.31V30.4283l14.9729,49.011h9.0273l16.0009-50.398V69.72q0,6.6978-4.844,7.4328v2.2868H72.2589V77.1559a4.461,4.461,0,0,1-3.963-1.9592,9.7143,9.7143,0,0,1-1.3217-5.4736V57.2574h7.6321a36.3692,36.3692,0,0,0,9.0646-.8975,19.0534,19.0534,0,0,0,6.4211-3.189q6.9725-5.0667,6.9725-14.3843Q97.0645,30.2057,91.34,25.3838ZM72.28,52.6091H67.0464v-27.4h5.16q6.4129,0,9.2861,3.2718T84.3679,38.95Q84.3679,52.61,72.28,52.6091Z"/>
</svg>
